<?xml version="1.0" encoding="utf-8"?>
<!-- Generator: Adobe Illustrator 26.0.3, SVG Export Plug-In . SVG Version: 6.00 Build 0)  -->
<svg version="1.1" id="Слой_1" xmlns="http://www.w3.org/2000/svg" xmlns:xlink="http://www.w3.org/1999/xlink" x="0px" y="0px"
	 viewBox="0 0 184 175" style="enable-background:new 0 0 184 175;" xml:space="preserve">
<style type="text/css">
	.st0{opacity:0.996;fill:#F6F7F7;enable-background:new    ;}
	.st1{opacity:0.816;fill-rule:evenodd;clip-rule:evenodd;fill:#C1C1C1;enable-background:new    ;}
	.st2{opacity:0.427;fill-rule:evenodd;clip-rule:evenodd;fill:#BBBBBB;enable-background:new    ;}
	.st3{fill-rule:evenodd;clip-rule:evenodd;fill:#27F5A9;}
	.st4{opacity:0.18;fill-rule:evenodd;clip-rule:evenodd;fill:#26D595;enable-background:new    ;}
	.st5{opacity:4.300000e-02;fill-rule:evenodd;clip-rule:evenodd;fill:#2E2E2E;enable-background:new    ;}
	.st6{opacity:0.729;fill-rule:evenodd;clip-rule:evenodd;fill:#28D091;enable-background:new    ;}
	.st7{opacity:0.814;fill-rule:evenodd;clip-rule:evenodd;fill:#BFBFBF;enable-background:new    ;}
	.st8{opacity:0.848;fill-rule:evenodd;clip-rule:evenodd;fill:#2EC086;enable-background:new    ;}
	.st9{opacity:0.848;fill-rule:evenodd;clip-rule:evenodd;fill:#25C589;enable-background:new    ;}
	.st10{opacity:0.847;fill-rule:evenodd;clip-rule:evenodd;fill:#20C689;enable-background:new    ;}
	.st11{fill-rule:evenodd;clip-rule:evenodd;fill:#BEC6C3;}
	.st12{opacity:0.22;fill-rule:evenodd;clip-rule:evenodd;fill:#51B98D;enable-background:new    ;}
	.st13{opacity:0.31;fill-rule:evenodd;clip-rule:evenodd;fill:#29DD9A;enable-background:new    ;}
	.st14{opacity:8.000000e-03;fill-rule:evenodd;clip-rule:evenodd;fill:#828383;enable-background:new    ;}
	.st15{opacity:0.72;fill-rule:evenodd;clip-rule:evenodd;fill:#C1C1C1;enable-background:new    ;}
	.st16{opacity:0.565;fill-rule:evenodd;clip-rule:evenodd;fill:#25CF90;enable-background:new    ;}
	.st17{opacity:0.471;fill-rule:evenodd;clip-rule:evenodd;fill:#2FD496;enable-background:new    ;}
	.st18{opacity:0.559;fill-rule:evenodd;clip-rule:evenodd;fill:#3FC991;enable-background:new    ;}
	.st19{opacity:0.396;fill-rule:evenodd;clip-rule:evenodd;fill:#303935;enable-background:new    ;}
	.st20{opacity:2.400000e-02;fill-rule:evenodd;clip-rule:evenodd;fill:#1C1C1C;enable-background:new    ;}
	.st21{opacity:0.118;fill-rule:evenodd;clip-rule:evenodd;fill:#364B41;enable-background:new    ;}
</style>
<g>
	<path class="st0" d="M89.5,89.5c2.4-0.2,4.1,0.8,5,3c8.1,0.9,16.1,2.3,24,4c3.4,0.4,6.7,1,10,2c6.7,1.8,13.4,3.8,20,6
		c3.7-0.6,6.7,0.4,9,3c0.9-0.1,1.5,0.2,2,1c0,0,0,0,0,0.1c0.6,0.1,1.2,0.6,1.1,1.2v0.5c0,0.1-0.1,0.2-0.1,0.4
		c-0.1,0.7-0.3,1.4-0.6,2c0,0,0,0,0,0.1c-0.1,0.4-0.2,0.8-0.3,1.2c0,0.8-0.3,1.7-0.9,2.5c-2.1,5-4.3,10-6.5,15
		c-0.3,0.4-0.6,0.7-0.9,0.9c-0.3,0.4-0.7,0.7-1,1.1c-0.5,0.5-0.9,1.1-1.4,1.6l0,0c0,0.2-0.1,0.5-0.3,0.7c-1.6,1.7-3.4,3.1-5.2,4.5
		c-4.7,6-10.6,10.4-17.7,13.3c-1.7,1.2-3.7,1.9-6,2c-0.9,0.3-1.7,0.5-2.6,0.7c-1.1,0.5-2.3,0.8-3.6,1.2c-7.7,2-15.9,2.9-23.9,2.6
		c-3.6-0.2-7.2-0.6-10.8-0.7c-2.4-0.1-4.8-0.3-7.1-1c-4.1-0.1-8.1-2.1-11.6-3.9c-1.9-1-3.7-2-5.6-3s-3.9-1.9-5.8-3
		c-4.2-2.4-8.2-5.4-11.7-8.8c-3.4-3.4-6.5-7.3-8.8-11.5c-0.6-1-1.1-2.1-1.6-3.1c-0.8-0.5-1.2-1.4-1.2-2.6c-0.4-0.9-0.9-1.9-1.3-2.8
		c-1.3-1.3-2.2-2.8-2.8-4.7c-0.1-0.3-0.1-0.6,0.1-0.8c-0.3-0.6-0.6-1.2-0.7-1.9c-0.3-0.7-0.6-1.4-1-2c-0.2-0.2-0.4-0.4-0.6-0.6
		c-6.5-21-4.2-41,7-60c1.5-2.9,3.3-5.3,5.5-7.5c0.6-0.9,1.3-1.8,1.9-2.6c0.8-1.3,2-2.5,3.1-3.5c0.9-0.9,1.8-1.7,2.7-2.5
		c6-5,12.9-8.5,19.9-11.8c3.3-1.5,6.6-3.5,10.1-4.3c1.4-0.3,2.8-0.6,4.2-0.7c3.3-0.8,6.8-1,10.2-1.2c6.6-0.2,13.4-1.1,20-0.3
		c2.4,0.3,4.8,0.9,6.9,2.1c4.4,0.1,8.6,1.9,12.5,4.1c2,0.4,3.8,1.3,5.6,2.3c1.7,0.7,3.3,1.5,4.9,2.3c0.3-0.1,0.6,0,0.9,0.1
		c1.9,0.9,3.5,2.2,5.1,3.7c1.6,0.8,3.1,1.8,4.5,2.9c0.8,0.4,1.6,0.8,2.4,1.2c0.3,0.3,0.5,0.6,0.7,0.9c1.1,0.5,2,1.1,2.8,1.9
		c0.2,0.1,0.4,0.1,0.5,0.2c1.7,1.8,3.5,3.5,5.4,5c1.2-0.8,2.6-1.3,3.9-2c0.7-0.4,1.4-0.9,2.1-1.3c1.3-0.9,2.7-1.8,4.1-2.5
		c0.3-0.1,0.5-0.2,0.8-0.1c0.5-0.3,1.1-0.7,1.6-1c-6.7-8.3-14.6-15.1-23.7-20.4c-0.1,0.5-0.4,0.9-1,1c-7-3.3-14-6.3-21-9
		c-8.6-3.2-17.6-4.5-27-4c-9.7-0.4-19.1,0.9-28,4c-7.3,3-14.6,6-22,9c-3.4,1.6-6.8,3.4-10,5.5L19,37.5c-6.7,8.7-11.2,18.3-13.5,29
		c-2.2,12.3-2.5,24.6-1,37c-0.3,1.6,0.1,2.9,1,4c2.3,6.7,5.3,13.2,9,19.5c-0.2,0.4-0.6,0.6-1,0.5c2.4,5.1,5.6,9.8,9.5,14
		c19.6,20.2,43.6,30.5,72,31c29.5-0.3,54-11.3,73.5-33c2.2-5.4,4.7-10.8,7.5-16c0.1-0.1,0.1-0.1,0.2-0.2c0.2-1,0.5-2,0.8-2.9
		c0.3-0.7,0.5-1.5,0.9-2.2c0.2-1.1,0.6-2.2,1.2-3.2c0.1-0.4,0.3-0.9,0.4-1.4v-0.1c0.7-6.6,1-13.3,1-20v-6
		C149.8,86.8,119.5,87.5,89.5,89.5z"/>
</g>
<g>
	<path class="st1" d="M122.5,6.5c7.8,1.3,15.2,3.9,22,8c-0.1,0.5-0.4,0.9-1,1C136.5,12.2,129.5,9.2,122.5,6.5z"/>
</g>
<g>
	<path class="st2" d="M67.5,6.5c-7.3,3-14.6,6-22,9C51.9,10.6,59.3,7.6,67.5,6.5z"/>
</g>
<g>
	<path class="st3" d="M148.5,104.5c-0.3,2.8-1.2,5.5-2.5,8c-2.8,5-6.2,9.7-10,14c-3.7-2.9-7.9-4.9-12.5-6c2.6-7,4.3-14.4,5-22
		c-3.3-1-6.6-1.6-10-2c-0.4,7-2.1,13.7-5,20c-6.1-2.6-12.4-3.9-19-4v-20c-0.9-2.2-2.6-3.2-5-3c-0.9-0.7-1.2-1.7-1-3h72
		c-0.3-23.5-9.3-42.6-27-57.2c-0.2-0.1-0.4-0.2-0.6-0.3c-0.3-0.2-0.6-0.3-0.9-0.5c-0.6,0-1-0.3-1.3-0.7c-0.8-0.4-1.5-0.9-2.3-1.3
		c0,0-0.1,0-0.1-0.1c-0.3,0-0.5-0.1-0.6-0.3c-1.3-0.6-2.7-1.1-4.1-1.6c-0.8-0.3-1.4-0.6-2-1.1h-0.1c-2.7-1.1-5.4-2.2-8-3.5
		c-3-0.3-5.7-1.6-8.5-2.5c-3.4,0.2-6.7-0.6-10.1-1c-5.5,0.1-10.9,0.3-16.3,0.7c-3.8,1.3-7.7,2.2-11.6,3.2c-0.4,0.6-0.9,1.1-1.5,1.6
		c-2.4,0.4-4.7,0.9-7,1.5c-0.6,0-1.1,0.1-1.6,0.2c-2.7,1.7-5.5,3.4-8.3,5.1c-0.2,0.2-0.4,0.3-0.7,0.4c-0.3,0.2-0.6,0.4-0.9,0.6
		c-0.6,0.5-1.3,1.1-1.9,1.6c-0.1,0.1-0.2,0.2-0.4,0.2c-2.1,2.4-4.5,4.3-7.3,5.8c-5.8,6.5-10.5,13.9-14,22v2c0,0.7-0.3,1-1,1
		c-1.3,4.6-2.3,9.3-3,14c0.8,7.2,1.3,14.5,1.5,22c1.3,11.6,5.7,22,13,31c3.8,3.9,7.3,7.9,10.5,12c4.5,4.1,9.5,7.4,15,10h1
		c1.2,0.4,2.2,1.1,3,2h1c3,0.2,5.7,1.2,8,3h1c5.5,0.7,11,1.4,16.5,2c4.8-0.6,9.7-0.9,14.5-1c1.1-0.9,2.4-1.3,4-1
		c2.1-1.1,4.4-1.8,7-2c6-3.4,12-6.9,18-10.5c1.5-1.4,2.9-2.9,4-4.5c6.6-8.9,12.9-17.9,19-27c0.8-1.5,1.1-3.2,1-5
		C155.2,104.9,152.2,103.9,148.5,104.5z M136,47.5c4.5,5.3,8.3,11,11.5,17c1.7,5.6,2.8,11.3,3.5,17c-6.8,1.1-13.6,1.3-20.5,0.5
		c-1.6-9.7-4.3-19-8-28c1.2-0.2,2.2-0.7,3-1.5C129.2,51.2,132.7,49.6,136,47.5z M115.5,31c5,2.5,9.7,5.5,14,9
		c-3.1,2-6.3,3.8-9.5,5.5c-1.8-5.2-4.3-9.8-7.5-14C113.3,30.4,114.3,30.3,115.5,31z M94.5,25.5c2.9,1.3,5.4,3.3,7.5,6
		c3.7,5.5,6.9,11.3,9.5,17.5c-5.6,1.6-11.3,2.8-17,3.5V25.5z M94.5,61.5c6.5-0.4,12.9-1.7,19-4c3.7,7.9,5.7,16.2,6,25h-25V61.5z
		 M75.5,33.5c1.8-2,3.5-4.1,5-6.5c1.5-1,3.2-1.5,5-1.5v27c-5.9-0.2-11.6-1.6-17-4C70.7,43.4,73,38.4,75.5,33.5z M66.5,30.5
		c-2.6,4.8-4.9,9.8-7,15c-3.5-1.6-6.8-3.4-10-5.5C54.3,35.3,60,32.2,66.5,30.5z M43.5,47.5c4.2,2.3,8.2,4.8,12,7.5
		c-2.5,7.3-4.2,14.8-5,22.5c-1,1.4-1.3,3.1-1,5h-21C28.9,68.6,33.9,56.9,43.5,47.5z M43,126.5c-8.9-9.5-13.7-20.8-14.5-34h21
		c-0.3,1.6,0.1,2.9,1,4c0.7,7.7,2.4,15.2,5,22.5C51.4,121.5,47.2,124,43,126.5z M50.5,134c2.5-1.7,4.9-3.5,7-5.5
		c1.2-0.2,2.2,0.1,3,1c2.2,4.7,4,9.3,5.5,14C60.1,141.5,54.9,138.3,50.5,134z M61.5,106.5c-0.3-4.7-0.9-9.4-2-14h26v19
		c-6.7,0.8-13.2,2.5-19.5,5C64.4,113.1,62.9,109.8,61.5,106.5z M84.5,148.5c-1.3-0.6-2.6-1.1-4-1.5c-1.2-2-2.5-3.8-4-5.5
		c-2.8-5.4-5.5-10.9-8-16.5c3.1-1.3,6.1-2.5,9-3.5h8C85.8,130.5,85.5,139.5,84.5,148.5z M84.5,82.5c-8,0.2-16,0-24-0.5
		c-0.5-0.6-0.9-1.2-1-2c1.1-4.5,2.1-9,3-13.5c0.4-3.2,1.4-6.2,3-9c6.4,2.5,13.1,3.8,20,4C85.8,68.6,85.5,75.6,84.5,82.5z M95,148.5
		c-0.5-9-0.7-18-0.5-27c5.8-0.2,11.2,1.1,16,4C107.8,135,102.6,142.6,95,148.5z M112.5,143c2.7-4.7,5.1-9.5,7-14.5
		c1.7,0.4,3.3,0.9,5,1.5c1.1,2,2.7,3.4,5,4C124.4,138.4,118.8,141.4,112.5,143z"/>
</g>
<g>
	<path class="st4" d="M85.5,52.5c0-9,0-18,0-27c-1.8,0-3.5,0.5-5,1.5c-1.5,2.4-3.2,4.5-5,6.5c0.8-3.1,2.5-6.3,5-9.5
		c2-0.5,4-0.7,6-0.5C86.8,33.9,86.5,43.6,85.5,52.5z"/>
</g>
<g>
	<path class="st5" d="M165.5,36.5c0,2-1,3-3,3C163.2,38.2,164.2,37.2,165.5,36.5z"/>
</g>
<g>
	<path class="st6" d="M125.5,52.5c-0.8,0.8-1.8,1.3-3,1.5c3.7,9,6.4,18.3,8,28c6.9,0.8,13.7,0.6,20.5-0.5c-0.7-5.7-1.8-11.4-3.5-17
		c-0.1-0.7,0-1.4,0.5-2c2.7,6.8,4.1,13.8,4,21c-7.8,1.1-15.6,1.3-23.5,0.5c-1.9-10.6-4.2-21.1-7-31.5
		C122.8,52.5,124.2,52.5,125.5,52.5z"/>
</g>
<g>
	<path class="st7" d="M5.5,66.5c-2.2,12.3-2.5,24.6-1,37C3,98.3,2.3,92.8,2.5,87C2.1,79.8,3.1,73,5.5,66.5z"/>
</g>
<g>
	<path class="st8" d="M50.5,77.5c0,2.3,0,4.7,0,7c-7.7,0.3-15.4,0-23-1c0.1-0.6,0.5-0.9,1-1c7,0,14,0,21,0
		C49.2,80.6,49.5,78.9,50.5,77.5z"/>
</g>
<g>
	<path class="st9" d="M62.5,66.5c-0.9,4.5-1.9,9-3,13.5c0.1,0.8,0.5,1.4,1,2c8,0.5,16,0.7,24,0.5c-3.9,1.3-8.3,2-13,2
		c-4.3-0.2-8.7-0.3-13-0.5c-0.6-1.1-0.9-2.2-1-3.5c0.9-4.6,1.6-9.3,2-14C60.5,66.5,61.5,66.5,62.5,66.5z"/>
</g>
<g>
	<path class="st10" d="M94.5,82.5c8.3,0,16.7,0,25,0c0.5,0.1,0.9,0.4,1,1c-4.3,0.3-8.7,0.7-13,1C102.8,84.5,98.4,83.8,94.5,82.5z"/>
</g>
<g>
	<path class="st11" d="M180.7,92.9c-0.1-0.3-0.1-0.5-0.1-0.8c0.3-1.6,0.6-3.1,1-4.7c-6.9-0.9-13.9-1.2-21.1-0.9h-72
		c-0.2,1.3,0.1,2.3,1,3c30-2,60.3-2.7,91-2v6C180.6,93.3,180.6,93.1,180.7,92.9z"/>
</g>
<g>
	<path class="st12" d="M85.5,111.5c0-6.3,0-12.7,0-19c-8.7,0-17.3,0-26,0c1.1,4.6,1.7,9.3,2,14c-1.5-0.7-2.4-2.1-2.5-4
		c-0.8-4-1.3-8-1.5-12c9.7,0,19.3,0,29,0C86.8,97.7,86.5,104.7,85.5,111.5z"/>
</g>
<g>
	<path class="st13" d="M50.5,91.5c2.1,8.8,4.4,17.8,7,27c-0.7,2.1-2.1,3.7-4,5c-3.8,1.7-7.5,3.7-11,6c-10.3-11.3-15.3-24.7-15-40
		C35.6,88.9,43.2,89.5,50.5,91.5z M28.5,92.5c7,0,14,0,21,0c-0.3,1.6,0.1,2.9,1,4c0.7,7.7,2.4,15.2,5,22.5c-4.1,2.5-8.3,5-12.5,7.5
		C34.1,117,29.3,105.7,28.5,92.5z"/>
</g>
<g>
	<path class="st14" d="M28.5,92.5c7.1-1,14.5-1.3,22-1c0,1.7,0,3.3,0,5c-0.9-1.1-1.3-2.4-1-4C42.5,92.5,35.5,92.5,28.5,92.5z"/>
</g>
<g>
	<path class="st15" d="M5.5,107.5c2.3,6.7,5.3,13.2,9,19.5c-0.2,0.4-0.6,0.6-1,0.5C9.2,121.6,6.5,114.9,5.5,107.5z"/>
</g>
<g>
	<path class="st16" d="M77.5,121.5c2.8-1,5.8-1.3,9-1c0.2,9.7,0,19.3-0.5,29c-0.7,0.6-1.6,0.9-2.5,1c-4-1.4-6.7-4-8-8
		c0.1-0.6,0.5-0.9,1-1c1.5,1.7,2.8,3.5,4,5.5c1.4,0.4,2.7,0.9,4,1.5c1-9,1.3-18,1-27C82.8,121.5,80.2,121.5,77.5,121.5z"/>
</g>
<g>
	<path class="st17" d="M156.5,112.5c-3.6,10.9-10,19.9-19,27C144.1,130.6,150.4,121.6,156.5,112.5z"/>
</g>
<g>
	<path class="st18" d="M22.5,111.4c1.2,2.3,2.2,4.7,3.2,7.1c1.3,3.1,2.9,6,4.9,8.8c3,4.3,7,7.9,10.2,12.1c1.2,0.8,2.4,1.6,3.7,2.2
		c-3.2-4.1-6.7-8.1-10.5-12c-7.3-9-11.7-19.4-13-31c-0.2-7.5-0.7-14.8-1.5-22c-1.7,11.6-0.7,22.9,3,34V111.4z"/>
</g>
<g>
	<path class="st19" d="M37.5,136.5c2.1,2.1,4.4,3.7,7,5c4.5,4.1,9.5,7.4,15,10C50.4,148.9,43,143.9,37.5,136.5z"/>
</g>
<g>
	<path class="st20" d="M60.5,151.5c1.2,0.4,2.2,1.1,3,2C61.8,153.7,60.8,153,60.5,151.5z"/>
</g>
<g>
	<path class="st21" d="M64.5,153.5c3,0.2,5.7,1.2,8,3C69.2,156.7,66.5,155.7,64.5,153.5z"/>
</g>
</svg>
